<svg width="158" height="156" viewBox="0 0 158 156" fill="none" xmlns="http://www.w3.org/2000/svg">
<g opacity="0.8" filter="url(#filter0_f_576_1505)">
<mask id="path-1-inside-1_576_1505" fill="white">
<path fill-rule="evenodd" clip-rule="evenodd" d="M103.706 83.077H146C143.364 117.156 114.418 144 79.0978 144C43.7774 144 14.8311 117.156 12.1956 83.077H53.0468C55.6714 94.7045 66.0156 103.385 78.3765 103.385C90.7375 103.385 101.082 94.7045 103.706 83.077ZM103.706 71.4726H145.872C142.539 38.0859 113.916 12 79.0978 12C44.28 12 15.6563 38.0859 12.324 71.4726H53.0468C55.6715 59.8451 66.0156 51.165 78.3765 51.165C90.7374 51.165 101.082 59.8451 103.706 71.4726ZM12 78L12.0003 77.8031V78.1969L12 78Z"/>
</mask>
<path fill-rule="evenodd" clip-rule="evenodd" d="M103.706 83.077H146C143.364 117.156 114.418 144 79.0978 144C43.7774 144 14.8311 117.156 12.1956 83.077H53.0468C55.6714 94.7045 66.0156 103.385 78.3765 103.385C90.7375 103.385 101.082 94.7045 103.706 83.077ZM103.706 71.4726H145.872C142.539 38.0859 113.916 12 79.0978 12C44.28 12 15.6563 38.0859 12.324 71.4726H53.0468C55.6715 59.8451 66.0156 51.165 78.3765 51.165C90.7374 51.165 101.082 59.8451 103.706 71.4726ZM12 78L12.0003 77.8031V78.1969L12 78Z" fill="black" fill-opacity="0.15"/>
<path d="M146 83.077L146.498 83.1155L146.54 82.577H146V83.077ZM103.706 83.077V82.577H103.307L103.219 82.9669L103.706 83.077ZM12.1956 83.077V82.577H11.6554L11.6971 83.1155L12.1956 83.077ZM53.0468 83.077L53.5345 82.9669L53.4465 82.577H53.0468V83.077ZM145.872 71.4726V71.9726H146.424L146.369 71.4229L145.872 71.4726ZM103.706 71.4726L103.218 71.5827L103.306 71.9726H103.706V71.4726ZM12.324 71.4726L11.8265 71.4229L11.7716 71.9726H12.324V71.4726ZM53.0468 71.4726V71.9726H53.4465L53.5345 71.5827L53.0468 71.4726ZM12.0003 77.8031H12.5003L11.5003 77.8023L12.0003 77.8031ZM12 78L11.5 77.9993L11.5 78.0007L12 78ZM12.0003 78.1969L11.5003 78.1977L12.5003 78.1969H12.0003ZM146 82.577H103.706V83.577H146V82.577ZM79.0978 144.5C114.674 144.5 143.842 117.459 146.498 83.1155L145.501 83.0384C142.886 116.852 114.162 143.5 79.0978 143.5V144.5ZM11.6971 83.1155C14.3531 117.459 43.5211 144.5 79.0978 144.5V143.5C44.0336 143.5 15.3091 116.852 12.6941 83.0384L11.6971 83.1155ZM53.0468 82.577H12.1956V83.577H53.0468V82.577ZM78.3765 102.885C66.2561 102.885 56.1091 94.3731 53.5345 82.9669L52.559 83.187C55.2336 95.036 65.7751 103.885 78.3765 103.885V102.885ZM103.219 82.9669C100.644 94.3731 90.497 102.885 78.3765 102.885V103.885C90.978 103.885 101.519 95.036 104.194 83.187L103.219 82.9669ZM145.872 70.9726H103.706V71.9726H145.872V70.9726ZM79.0978 12.5C113.663 12.5 142.068 38.3952 145.374 71.5222L146.369 71.4229C143.011 37.7765 114.168 11.5 79.0978 11.5V12.5ZM12.8215 71.5222C16.1279 38.3952 44.5328 12.5 79.0978 12.5V11.5C44.0272 11.5 15.1847 37.7765 11.8265 71.4229L12.8215 71.5222ZM53.0468 70.9726H12.324V71.9726H53.0468V70.9726ZM53.5345 71.5827C56.1093 60.1765 66.2561 51.665 78.3765 51.665V50.665C65.7751 50.665 55.2337 59.5137 52.5591 71.3625L53.5345 71.5827ZM78.3765 51.665C90.4969 51.665 100.644 60.1765 103.218 71.5827L104.194 71.3625C101.519 59.5137 90.9779 50.665 78.3765 50.665V51.665ZM11.5003 77.8023L11.5 77.9993L12.5 78.0007L12.5003 77.8038L11.5003 77.8023ZM12.5003 78.1969V77.8031H11.5003V78.1969H12.5003ZM11.5 78.0007L11.5003 78.1977L12.5003 78.1962L12.5 77.9993L11.5 78.0007Z" fill="black" fill-opacity="0.4" mask="url(#path-1-inside-1_576_1505)"/>
<circle cx="79.5" cy="76.5" r="17.5" fill="black" fill-opacity="0.15"/>
</g>
<defs>
<filter id="filter0_f_576_1505" x="0" y="0" width="158" height="156" filterUnits="userSpaceOnUse" color-interpolation-filters="sRGB">
<feFlood flood-opacity="0" result="BackgroundImageFix"/>
<feBlend mode="normal" in="SourceGraphic" in2="BackgroundImageFix" result="shape"/>
<feGaussianBlur stdDeviation="6" result="effect1_foregroundBlur_576_1505"/>
</filter>
</defs>
</svg>
