<svg width="14" height="15" viewBox="0 0 14 15" fill="none" xmlns="http://www.w3.org/2000/svg">
<path d="M12.9145 13.7104L12.9925 13.773C13.0876 13.6546 13.1209 13.4999 13.0872 13.35L13.087 13.3491L11.237 5.4551C11.237 5.45498 11.237 5.45486 11.237 5.45474C11.1788 5.19971 10.9725 5.04284 10.7142 5.04284H7.99322C7.65769 5.04284 7.38569 4.77084 7.38569 4.4353C7.38569 4.14928 7.60203 3.89562 7.86683 3.69833C8.25627 3.40818 8.52854 2.92663 8.52854 2.42856C8.52854 1.61881 7.81082 0.9 6.99997 0.9C6.18898 0.9 5.47141 1.61882 5.47141 2.42856C5.47141 2.92663 5.74361 3.4082 6.13309 3.69836C6.39791 3.89564 6.61426 4.14929 6.61426 4.43532C6.61426 4.77084 6.34226 5.04284 6.00674 5.04284H3.28571C3.02792 5.04284 2.82153 5.19943 2.76341 5.45479C2.76338 5.4549 2.76336 5.45501 2.76333 5.45513L0.913209 13.3491L0.913085 13.3497C0.878791 13.4997 0.912578 13.6538 1.00682 13.7726L1.00709 13.7729C1.10174 13.8911 1.24549 13.9571 1.39886 13.9571H12.6009C12.7545 13.9571 12.898 13.891 12.9926 13.7729L12.9145 13.7104ZM12.9145 13.7104C12.9897 13.6168 13.0169 13.4935 12.9897 13.3719H1.01057C0.982858 13.4932 1.01029 13.6161 1.08514 13.7104C1.15986 13.8037 1.27429 13.8571 1.39886 13.8571H12.6009C12.7257 13.8571 12.8398 13.8037 12.9145 13.7104ZM6.24283 2.42856C6.24283 2.01121 6.5825 1.67143 6.99997 1.67143C7.41745 1.67143 7.75711 2.01121 7.75711 2.42856C7.75711 2.84592 7.41745 3.1857 6.99997 3.1857C6.58251 3.1857 6.24283 2.84578 6.24283 2.42856ZM2.84635 13.1857C2.26249 13.1857 1.83317 12.6383 1.97226 12.0713L3.33883 6.49987C3.43757 6.09733 3.79845 5.81426 4.21292 5.81426H9.78703C10.2015 5.81426 10.5624 6.09732 10.6611 6.49987L12.0277 12.0713C12.1668 12.6383 11.7375 13.1857 11.1536 13.1857H2.84635Z" fill="#555252" stroke="#555252" stroke-width="0.2" stroke-linejoin="round"/>
</svg>
