<svg width="18" height="18" viewBox="0 0 18 18" fill="none" xmlns="http://www.w3.org/2000/svg">
<path d="M16.9902 14.9566L15.9218 15.9971V2.15896L16.9902 3.19942C17.2248 3.43353 17.5896 3.43353 17.8241 3.19942C18.0586 2.96532 18.0586 2.60116 17.8241 2.36705L15.9218 0.520231L15.7655 0.390173C15.5309 0.182081 15.1922 0.156069 14.9577 0.390173L14.7492 0.598266L12.8208 2.39306C12.5863 2.60116 12.5603 2.99133 12.7948 3.22543C12.899 3.35549 13.0554 3.40751 13.2117 3.40751C13.342 3.40751 13.4984 3.35549 13.6026 3.25145L14.7231 2.21098V16.0231L13.6026 14.9827C13.4984 14.8786 13.342 14.8266 13.2117 14.8266C13.0554 14.8266 12.899 14.8786 12.7948 15.0087C12.5863 15.2428 12.5863 15.6069 12.8208 15.841L14.7492 17.6358L14.9577 17.8439C15.1922 18.052 15.5309 18.052 15.7655 17.8439L15.9218 17.7139L17.798 15.8671C18.0326 15.6329 18.0326 15.2688 17.798 15.0347C17.5896 14.7486 17.2248 14.7225 16.9902 14.9566ZM6.22801 0H2.13681C0.96417 0 0 0.962428 0 2.13295V15.789C0 16.9595 0.96417 17.922 2.13681 17.922H6.20195C7.37459 17.922 8.33876 16.9595 8.33876 15.789V2.13295C8.36482 0.962428 7.40065 0 6.22801 0ZM7.19218 3.17341H4.79479C4.48208 3.17341 4.2215 3.43353 4.2215 3.74566C4.2215 4.0578 4.48208 4.31792 4.79479 4.31792H7.19218V5.74855H4.79479C4.48208 5.74855 4.2215 6.00867 4.2215 6.32081C4.2215 6.63295 4.48208 6.89306 4.79479 6.89306H7.19218V8.40173H4.79479C4.48208 8.40173 4.2215 8.66185 4.2215 8.97399C4.2215 9.28613 4.48208 9.54624 4.79479 9.54624H7.19218V10.9769H4.79479C4.48208 10.9769 4.2215 11.237 4.2215 11.5491C4.2215 11.8613 4.48208 12.1214 4.79479 12.1214H7.19218V13.552H4.79479C4.48208 13.552 4.2215 13.8121 4.2215 14.1243C4.2215 14.4364 4.48208 14.7225 4.79479 14.7225H7.19218V15.711C7.19218 16.2572 6.74919 16.6734 6.22801 16.6734H2.13681C1.58958 16.6734 1.17264 16.2312 1.17264 15.711V2.13295C1.17264 1.58671 1.61564 1.17052 2.13681 1.17052H6.20195C6.74918 1.17052 7.16612 1.61272 7.16612 2.13295V3.17341H7.19218Z" fill="#555252"/>
</svg>
